<svg width="180" height="56" viewBox="0 0 180 56" fill="none" xmlns="http://www.w3.org/2000/svg">
<path d="M0 0H180V45H0V0Z" fill="#FFD83B"/>
<path d="M43.2734 29H41.0781L36.375 23.2109V29H34.5078V17.5781H36.375V23.1094L41 17.5781H43.0469L38.4375 23.0938L43.2734 29ZM52.3516 21.0312C52.3516 22.224 51.9609 23.138 51.1797 23.7734C50.3984 24.4089 49.2865 24.7266 47.8438 24.7266H46.6562V29H44.7891V17.5781H48.0781C49.5052 17.5781 50.5729 17.8698 51.2812 18.4531C51.9948 19.0365 52.3516 19.8958 52.3516 21.0312ZM46.6562 23.1562H47.6484C48.6068 23.1562 49.3099 22.9896 49.7578 22.6562C50.2057 22.3229 50.4297 21.8021 50.4297 21.0938C50.4297 20.4375 50.2292 19.9479 49.8281 19.625C49.4271 19.3021 48.8021 19.1406 47.9531 19.1406H46.6562V23.1562ZM63.3203 17.5781L59.7188 25.7031C59.276 26.6979 58.8698 27.4193 58.5 27.8672C58.1302 28.3099 57.7005 28.6354 57.2109 28.8438C56.7266 29.0521 56.138 29.1562 55.4453 29.1562C54.8411 29.1562 54.2812 29.0781 53.7656 28.9219V27.2422C54.276 27.4453 54.8099 27.5469 55.3672 27.5469C55.8411 27.5469 56.237 27.4323 56.5547 27.2031C56.8776 26.9688 57.1693 26.5495 57.4297 25.9453L53.2188 17.5781H55.2344L58.0234 23.3047C58.2734 23.8464 58.4271 24.2083 58.4844 24.3906H58.5625C58.5938 24.2552 58.6719 24.0391 58.7969 23.7422L61.3672 17.5781H63.3203ZM71.6172 17.5781V19.1797H66.7031V29H64.8359V17.5781H71.6172ZM82.0469 29H80.1797V19.1797H76.9297C76.5182 22.513 76.1875 24.7812 75.9375 25.9844C75.6927 27.1875 75.3464 28.026 74.8984 28.5C74.4505 28.9688 73.8568 29.1953 73.1172 29.1797C72.737 29.1797 72.375 29.1146 72.0312 28.9844V27.4297C72.3281 27.5599 72.6172 27.625 72.8984 27.625C73.2734 27.625 73.5651 27.401 73.7734 26.9531C73.987 26.5 74.2188 25.5026 74.4688 23.9609C74.724 22.4193 75.026 20.2917 75.375 17.5781H82.0469V29ZM92.6484 25.5625C92.6484 26.6927 92.2812 27.5495 91.5469 28.1328C90.8177 28.7109 89.7448 29 88.3281 29H85.0703V17.5781H86.9375V22.2188H88.2656C89.6927 22.2188 90.7786 22.5052 91.5234 23.0781C92.2734 23.651 92.6484 24.4792 92.6484 25.5625ZM86.9375 27.4453H88.2188C89.0521 27.4453 89.6823 27.2969 90.1094 27C90.5365 26.6979 90.75 26.2188 90.75 25.5625C90.75 24.9427 90.5443 24.4948 90.1328 24.2188C89.7266 23.9375 89.0339 23.7969 88.0547 23.7969H86.9375V27.4453ZM96.125 29H94.25V17.5781H96.125V29ZM99.1328 17.5781H100.844V23.5156C100.844 24.1354 100.828 24.763 100.797 25.3984C100.766 26.0286 100.742 26.4557 100.727 26.6797H100.797L106.633 17.5781H108.812V29H107.094V23.1094C107.094 22.2083 107.143 21.1146 107.242 19.8281H107.18L101.32 29H99.1328V17.5781ZM104.031 16.6641C102.927 16.6641 102.117 16.4661 101.602 16.0703C101.091 15.6693 100.807 15.0026 100.75 14.0703H102.414C102.445 14.4453 102.516 14.737 102.625 14.9453C102.74 15.1536 102.901 15.3047 103.109 15.3984C103.323 15.487 103.646 15.5312 104.078 15.5312C104.589 15.5312 104.977 15.4193 105.242 15.1953C105.508 14.9661 105.669 14.5911 105.727 14.0703H107.422C107.344 14.9661 107.029 15.6224 106.477 16.0391C105.924 16.4557 105.109 16.6641 104.031 16.6641ZM122.742 17.5781V19.1797H117.828V29H115.961V17.5781H122.742ZM134.742 23.2734C134.742 25.1328 134.276 26.5781 133.344 27.6094C132.417 28.6406 131.102 29.1562 129.398 29.1562C127.674 29.1562 126.349 28.6458 125.422 27.625C124.5 26.599 124.039 25.1432 124.039 23.2578C124.039 21.3724 124.503 19.9245 125.43 18.9141C126.362 17.9036 127.69 17.3984 129.414 17.3984C131.112 17.3984 132.424 17.9115 133.352 18.9375C134.279 19.9635 134.742 21.4089 134.742 23.2734ZM126.023 23.2734C126.023 24.6797 126.307 25.7474 126.875 26.4766C127.443 27.2005 128.284 27.5625 129.398 27.5625C130.508 27.5625 131.344 27.2031 131.906 26.4844C132.474 25.7656 132.758 24.6953 132.758 23.2734C132.758 21.8724 132.477 20.8099 131.914 20.0859C131.357 19.362 130.523 19 129.414 19C128.294 19 127.448 19.362 126.875 20.0859C126.307 20.8099 126.023 21.8724 126.023 23.2734ZM135.781 27.3984H136.664C137.419 26.0182 138.052 24.4688 138.562 22.75C139.073 21.0312 139.401 19.3073 139.547 17.5781H145.445V27.3984H146.922V32.1484H145.125V29H137.578V32.1484H135.781V27.3984ZM141.109 19.1953C140.995 20.3776 140.703 21.75 140.234 23.3125C139.766 24.8698 139.232 26.2318 138.633 27.3984H143.578V19.1953H141.109Z" fill="#323232"/>
</svg>
