<svg width="166" height="55" viewBox="0 0 166 55" fill="none" xmlns="http://www.w3.org/2000/svg">
<path d="M0 15C0 6.71573 6.71573 0 15 0H129V31C129 37.6274 123.627 43 117 43H0V15Z" fill="#7553FF"/>
<path d="M36.2012 27H34.5605V22.4951H29.9531V27H28.3193V17.0059H29.9531V21.0938H34.5605V17.0059H36.2012V27ZM47.7061 21.9893C47.7061 23.6162 47.2982 24.8809 46.4824 25.7832C45.6712 26.6855 44.5205 27.1367 43.0303 27.1367C41.5218 27.1367 40.362 26.6901 39.5508 25.7969C38.7441 24.8991 38.3408 23.6253 38.3408 21.9756C38.3408 20.3258 38.7464 19.0589 39.5576 18.1748C40.3734 17.2907 41.5355 16.8486 43.0439 16.8486C44.5296 16.8486 45.6781 17.2975 46.4893 18.1953C47.3005 19.0931 47.7061 20.3577 47.7061 21.9893ZM40.0771 21.9893C40.0771 23.2197 40.3255 24.154 40.8223 24.792C41.319 25.4255 42.055 25.7422 43.0303 25.7422C44.001 25.7422 44.7324 25.4277 45.2246 24.7988C45.7214 24.1699 45.9697 23.2334 45.9697 21.9893C45.9697 20.7633 45.7236 19.8337 45.2314 19.2002C44.7438 18.5667 44.0146 18.25 43.0439 18.25C42.0641 18.25 41.3236 18.5667 40.8223 19.2002C40.3255 19.8337 40.0771 20.7633 40.0771 21.9893ZM49.8525 17.0059H52.8193C54.1956 17.0059 55.1891 17.2064 55.7998 17.6074C56.415 18.0085 56.7227 18.6419 56.7227 19.5078C56.7227 20.0911 56.5723 20.5765 56.2715 20.9639C55.9707 21.3512 55.5378 21.5951 54.9727 21.6953V21.7637C55.6745 21.8958 56.1895 22.1579 56.5176 22.5498C56.8503 22.9372 57.0166 23.4635 57.0166 24.1289C57.0166 25.0267 56.7021 25.7308 56.0732 26.2412C55.4489 26.7471 54.5785 27 53.4619 27H49.8525V17.0059ZM51.4863 21.1348H53.0586C53.7422 21.1348 54.2412 21.0277 54.5557 20.8135C54.8701 20.5947 55.0273 20.2256 55.0273 19.7061C55.0273 19.2367 54.8564 18.8971 54.5146 18.6875C54.1774 18.4779 53.6396 18.373 52.9014 18.373H51.4863V21.1348ZM51.4863 22.4609V25.626H53.2227C53.9062 25.626 54.4212 25.4961 54.7676 25.2363C55.1185 24.972 55.2939 24.5573 55.2939 23.9922C55.2939 23.4727 55.1162 23.0876 54.7607 22.8369C54.4053 22.5863 53.8652 22.4609 53.1406 22.4609H51.4863ZM59.0947 17.0059H60.5918V22.2012C60.5918 22.7435 60.5781 23.2926 60.5508 23.8486C60.5234 24.4001 60.5029 24.7738 60.4893 24.9697H60.5508L65.6572 17.0059H67.5645V27H66.0605V21.8457C66.0605 21.0573 66.1038 20.1003 66.1904 18.9746H66.1357L61.0088 27H59.0947V17.0059ZM78.0645 27H76.4238V22.4951H71.8164V27H70.1826V17.0059H71.8164V21.0938H76.4238V17.0059H78.0645V27ZM88.3662 27H86.4453L82.3301 21.9346V27H80.6963V17.0059H82.3301V21.8457L86.377 17.0059H88.168L84.1348 21.832L88.3662 27ZM95.8926 27L94.8945 24.2246H91.0732L90.0957 27H88.373L92.1123 16.9648H93.8896L97.6289 27H95.8926ZM94.4639 22.8164L93.5273 20.0957C93.459 19.9134 93.3633 19.6263 93.2402 19.2344C93.1217 18.8424 93.0397 18.5553 92.9941 18.373C92.8711 18.9336 92.6911 19.5465 92.4541 20.2119L91.5518 22.8164H94.4639Z" fill="white"/>
</svg>
