<svg width="156" height="51" viewBox="0 0 156 51" fill="none" xmlns="http://www.w3.org/2000/svg">
<path d="M0 0H99V35H0V0Z" fill="#FED74B"/>
<path d="M24.8867 23H23.4805V19.1387H19.5312V23H18.1309V14.4336H19.5312V17.9375H23.4805V14.4336H24.8867V23ZM34.748 18.7051C34.748 20.0996 34.3984 21.1836 33.6992 21.957C33.0039 22.7305 32.0176 23.1172 30.7402 23.1172C29.4473 23.1172 28.4531 22.7344 27.7578 21.9688C27.0664 21.1992 26.7207 20.1074 26.7207 18.6934C26.7207 17.2793 27.0684 16.1934 27.7637 15.4355C28.4629 14.6777 29.459 14.2988 30.752 14.2988C32.0254 14.2988 33.0098 14.6836 33.7051 15.4531C34.4004 16.2227 34.748 17.3066 34.748 18.7051ZM28.209 18.7051C28.209 19.7598 28.4219 20.5605 28.8477 21.1074C29.2734 21.6504 29.9043 21.9219 30.7402 21.9219C31.5723 21.9219 32.1992 21.6523 32.6211 21.1133C33.0469 20.5742 33.2598 19.7715 33.2598 18.7051C33.2598 17.6543 33.0488 16.8574 32.627 16.3145C32.209 15.7715 31.584 15.5 30.752 15.5C29.9121 15.5 29.2773 15.7715 28.8477 16.3145C28.4219 16.8574 28.209 17.6543 28.209 18.7051ZM36.5879 14.4336H39.1309C40.3105 14.4336 41.1621 14.6055 41.6855 14.9492C42.2129 15.293 42.4766 15.8359 42.4766 16.5781C42.4766 17.0781 42.3477 17.4941 42.0898 17.8262C41.832 18.1582 41.4609 18.3672 40.9766 18.4531V18.5117C41.5781 18.625 42.0195 18.8496 42.3008 19.1855C42.5859 19.5176 42.7285 19.9688 42.7285 20.5391C42.7285 21.3086 42.459 21.9121 41.9199 22.3496C41.3848 22.7832 40.6387 23 39.6816 23H36.5879V14.4336ZM37.9883 17.9727H39.3359C39.9219 17.9727 40.3496 17.8809 40.6191 17.6973C40.8887 17.5098 41.0234 17.1934 41.0234 16.748C41.0234 16.3457 40.877 16.0547 40.584 15.875C40.2949 15.6953 39.834 15.6055 39.2012 15.6055H37.9883V17.9727ZM37.9883 19.1094V21.8223H39.4766C40.0625 21.8223 40.5039 21.7109 40.8008 21.4883C41.1016 21.2617 41.252 20.9062 41.252 20.4219C41.252 19.9766 41.0996 19.6465 40.7949 19.4316C40.4902 19.2168 40.0273 19.1094 39.4062 19.1094H37.9883ZM44.5098 14.4336H45.793V18.8867C45.793 19.3516 45.7812 19.8223 45.7578 20.2988C45.7344 20.7715 45.7168 21.0918 45.7051 21.2598H45.7578L50.1348 14.4336H51.7695V23H50.4805V18.582C50.4805 17.9062 50.5176 17.0859 50.5918 16.1211H50.5449L46.1504 23H44.5098V14.4336ZM60.7695 23H59.3633V19.1387H55.4141V23H54.0137V14.4336H55.4141V17.9375H59.3633V14.4336H60.7695V23ZM69.5996 23H67.9531L64.4258 18.6582V23H63.0254V14.4336H64.4258V18.582L67.8945 14.4336H69.4297L65.9727 18.5703L69.5996 23ZM76.0508 23L75.1953 20.6211H71.9199L71.082 23H69.6055L72.8105 14.3984H74.334L77.5391 23H76.0508ZM74.8262 19.4141L74.0234 17.082C73.9648 16.9258 73.8828 16.6797 73.7773 16.3438C73.6758 16.0078 73.6055 15.7617 73.5664 15.6055C73.4609 16.0859 73.3066 16.6113 73.1035 17.1816L72.3301 19.4141H74.8262Z" fill="#3E3E3E"/>
</svg>
